<?xml version="1.0" encoding="utf-8"?>
<!-- Generator: Adobe Illustrator 21.0.0, SVG Export Plug-In . SVG Version: 6.00 Build 0)  -->
<svg version="1.1" id="Layer_1" xmlns="http://www.w3.org/2000/svg" xmlns:xlink="http://www.w3.org/1999/xlink" x="0px" y="0px"
	 viewBox="0 0 32 32" style="enable-background:new 0 0 32 32;" xml:space="preserve">
<style type="text/css">
	.st0{fill:#FFFFFF;}
</style>
<path class="st0" d="M7,27.5v-2.3c0-0.3-0.1-0.6-0.3-0.8S6.3,24.1,6,24.1H4c-0.3,0-0.5,0.1-0.7,0.3S3,24.9,3,25.2v2.3
	c0,0.3,0.1,0.6,0.3,0.8s0.4,0.3,0.7,0.3h2c0.3,0,0.5-0.1,0.7-0.3S7,27.9,7,27.5z M7,20.6v-2.3c0-0.3-0.1-0.6-0.3-0.8
	c-0.2-0.2-0.4-0.3-0.7-0.3H4c-0.3,0-0.5,0.1-0.7,0.3C3.1,17.7,3,18,3,18.3v2.3c0,0.3,0.1,0.6,0.3,0.8c0.2,0.2,0.4,0.3,0.7,0.3h2
	c0.3,0,0.5-0.1,0.7-0.3C6.9,21.2,7,20.9,7,20.6z M7,13.7v-2.3c0-0.3-0.1-0.6-0.3-0.8S6.3,10.2,6,10.2H4c-0.3,0-0.5,0.1-0.7,0.3
	S3,11.1,3,11.4v2.3c0,0.3,0.1,0.6,0.3,0.8s0.4,0.3,0.7,0.3h2c0.3,0,0.5-0.1,0.7-0.3S7,14,7,13.7z M23,27.5v-9.2
	c0-0.3-0.1-0.6-0.3-0.8c-0.2-0.2-0.4-0.3-0.7-0.3H10c-0.3,0-0.5,0.1-0.7,0.3C9.1,17.7,9,18,9,18.3v9.2c0,0.3,0.1,0.6,0.3,0.8
	s0.4,0.3,0.7,0.3h12c0.3,0,0.5-0.1,0.7-0.3S23,27.9,23,27.5z M7,6.8V4.5c0-0.3-0.1-0.6-0.3-0.8S6.3,3.3,6,3.3H4
	c-0.3,0-0.5,0.1-0.7,0.3S3,4.1,3,4.5v2.3c0,0.3,0.1,0.6,0.3,0.8C3.5,7.8,3.7,7.9,4,7.9h2c0.3,0,0.5-0.1,0.7-0.3C6.9,7.4,7,7.1,7,6.8
	z M29,27.5v-2.3c0-0.3-0.1-0.6-0.3-0.8s-0.4-0.3-0.7-0.3h-2c-0.3,0-0.5,0.1-0.7,0.3S25,24.9,25,25.2v2.3c0,0.3,0.1,0.6,0.3,0.8
	s0.4,0.3,0.7,0.3h2c0.3,0,0.5-0.1,0.7-0.3S29,27.9,29,27.5z M23,13.7V4.5c0-0.3-0.1-0.6-0.3-0.8S22.3,3.3,22,3.3H10
	c-0.3,0-0.5,0.1-0.7,0.3S9,4.1,9,4.5v9.2c0,0.3,0.1,0.6,0.3,0.8s0.4,0.3,0.7,0.3h12c0.3,0,0.5-0.1,0.7-0.3S23,14,23,13.7z M29,20.6
	v-2.3c0-0.3-0.1-0.6-0.3-0.8c-0.2-0.2-0.4-0.3-0.7-0.3h-2c-0.3,0-0.5,0.1-0.7,0.3C25.1,17.7,25,18,25,18.3v2.3
	c0,0.3,0.1,0.6,0.3,0.8c0.2,0.2,0.4,0.3,0.7,0.3h2c0.3,0,0.5-0.1,0.7-0.3C28.9,21.2,29,20.9,29,20.6z M29,13.7v-2.3
	c0-0.3-0.1-0.6-0.3-0.8s-0.4-0.3-0.7-0.3h-2c-0.3,0-0.5,0.1-0.7,0.3S25,11.1,25,11.4v2.3c0,0.3,0.1,0.6,0.3,0.8s0.4,0.3,0.7,0.3h2
	c0.3,0,0.5-0.1,0.7-0.3S29,14,29,13.7z M29,6.8V4.5c0-0.3-0.1-0.6-0.3-0.8S28.3,3.3,28,3.3h-2c-0.3,0-0.5,0.1-0.7,0.3S25,4.1,25,4.5
	v2.3c0,0.3,0.1,0.6,0.3,0.8c0.2,0.2,0.4,0.3,0.7,0.3h2c0.3,0,0.5-0.1,0.7-0.3C28.9,7.4,29,7.1,29,6.8z M31,3.9v24.2
	c0,0.8-0.2,1.5-0.7,2c-0.5,0.6-1.1,0.8-1.8,0.8h-25c-0.7,0-1.3-0.3-1.8-0.8c-0.5-0.6-0.7-1.2-0.7-2V3.9c0-0.8,0.2-1.5,0.7-2
	S2.8,1,3.5,1h25c0.7,0,1.3,0.3,1.8,0.8S31,3.1,31,3.9z"/>
</svg>
